<svg xmlns="http://www.w3.org/2000/svg" xmlns:xlink="http://www.w3.org/1999/xlink" width="500" zoomAndPan="magnify" viewBox="0 0 375 374.999991" height="500" preserveAspectRatio="xMidYMid meet" version="1.0"><defs><g/><clipPath id="ec926f2de4"><path d="M 142.863281 144 L 226 144 L 226 200.945312 L 142.863281 200.945312 Z M 142.863281 144 " clip-rule="nonzero"/></clipPath><clipPath id="cc32401fe2"><path d="M 216 131.195312 L 232.113281 131.195312 L 232.113281 148 L 216 148 Z M 216 131.195312 " clip-rule="nonzero"/></clipPath></defs><g clip-path="url(#ec926f2de4)"><path fill="#3a9bdc" d="M 152.605469 144.425781 L 187.839844 144.425781 L 187.839844 147.320312 L 156.808594 147.320312 C 155.660156 147.320312 154.71875 148.265625 154.71875 149.421875 L 154.71875 182.371094 C 154.71875 183.527344 155.660156 184.472656 156.808594 184.472656 L 210.847656 184.472656 C 211.996094 184.472656 212.9375 183.527344 212.9375 182.371094 L 212.9375 171.855469 L 217.472656 171.855469 L 217.472656 184.933594 C 217.472656 185.757812 217.058594 186.484375 216.433594 186.925781 L 217.472656 186.925781 C 217.472656 186.925781 220.027344 189.964844 225.140625 196.039062 C 224.441406 198.816406 223.046875 200.453125 220.957031 200.945312 C 220.957031 200.945312 196.554688 200.945312 147.746094 200.945312 C 145.335938 200.882812 143.710938 199.246094 142.867188 196.039062 C 142.867188 196.039062 145.421875 193 150.535156 186.925781 L 151.222656 186.925781 C 150.597656 186.484375 150.1875 185.757812 150.1875 184.933594 L 150.1875 146.859375 C 150.1875 145.519531 151.273438 144.425781 152.605469 144.425781 Z M 178.078125 197.441406 L 189.929688 197.441406 C 190.503906 197.441406 190.976562 197.914062 190.976562 198.492188 C 190.976562 199.070312 190.503906 199.542969 189.929688 199.542969 L 178.078125 199.542969 C 177.5 199.542969 177.03125 199.070312 177.03125 198.492188 C 177.03125 197.914062 177.5 197.441406 178.078125 197.441406 Z M 171.453125 196.390625 C 172.847656 194.285156 173.542969 193.234375 173.542969 193.234375 C 187.488281 193.234375 194.460938 193.234375 194.460938 193.234375 C 195.855469 195.335938 196.554688 196.390625 196.554688 196.390625 C 179.820312 196.390625 171.453125 196.390625 171.453125 196.390625 Z M 171.453125 196.390625 " fill-opacity="1" fill-rule="evenodd"/></g><path fill="#12229d" d="M 178.425781 166.597656 L 185.398438 166.597656 L 185.398438 173.605469 L 178.425781 173.605469 Z M 178.425781 166.597656 " fill-opacity="1" fill-rule="evenodd"/><path fill="#233dff" d="M 189.230469 166.246094 L 195.421875 166.246094 L 195.421875 172.472656 L 189.230469 172.472656 Z M 189.230469 166.246094 " fill-opacity="1" fill-rule="evenodd"/><path fill="#5cb6f9" d="M 211.171875 155.378906 L 224.421875 155.378906 L 224.421875 168.699219 L 211.171875 168.699219 Z M 211.171875 155.378906 " fill-opacity="1" fill-rule="evenodd"/><path fill="#f4f6fc" d="M 200.78125 163.835938 L 208.40625 163.835938 L 208.40625 171.503906 L 200.78125 171.503906 Z M 200.78125 163.835938 " fill-opacity="1" fill-rule="evenodd"/><path fill="#12229d" d="M 193.808594 155.421875 L 201.433594 155.421875 L 201.433594 163.09375 L 193.808594 163.09375 Z M 193.808594 155.421875 " fill-opacity="1" fill-rule="evenodd"/><path fill="#5cb6f9" d="M 190.996094 145.589844 L 198.625 145.589844 L 198.625 153.257812 L 190.996094 153.257812 Z M 190.996094 145.589844 " fill-opacity="1" fill-rule="evenodd"/><path fill="#f4f6fc" d="M 183 158.578125 L 189.191406 158.578125 L 189.191406 164.800781 L 183 164.800781 Z M 183 158.578125 " fill-opacity="1" fill-rule="evenodd"/><path fill="#233dff" d="M 202.828125 142.410156 L 213.636719 142.410156 L 213.636719 153.277344 L 202.828125 153.277344 Z M 202.828125 142.410156 " fill-opacity="1" fill-rule="evenodd"/><path fill="#12229d" d="M 204.941406 132.269531 L 212.570312 132.269531 L 212.570312 139.9375 L 204.941406 139.9375 Z M 204.941406 132.269531 " fill-opacity="1" fill-rule="evenodd"/><g clip-path="url(#cc32401fe2)"><path fill="#f4f6fc" d="M 216.074219 131.195312 L 232.113281 131.195312 L 232.113281 147.320312 L 216.074219 147.320312 Z M 216.074219 131.195312 " fill-opacity="1" fill-rule="evenodd"/></g><g fill="#12229d" fill-opacity="1"><g transform="translate(101.521712, 233.855874)"><g><path d="M 2.84375 0 L 6.808594 0 L 6.808594 -22.0625 L 2.84375 -22.0625 Z M 2.84375 0 "/></g></g></g><g fill="#12229d" fill-opacity="1"><g transform="translate(111.168532, 233.855874)"><g><path d="M 2.265625 0 L 6.042969 0 L 6.042969 -8.542969 C 6.042969 -11.257812 7.417969 -12.414062 9.554688 -12.414062 C 11.507812 -12.414062 12.539062 -10.929688 12.539062 -8.886719 L 12.539062 0 L 16.300781 0 L 16.300781 -9.367188 C 16.300781 -12.632812 14.742188 -15.925781 10.648438 -15.925781 C 9.121094 -15.925781 7.292969 -15.320312 6.042969 -13.789062 L 6.042969 -15.601562 L 2.265625 -15.601562 Z M 2.265625 0 "/></g></g></g><g fill="#12229d" fill-opacity="1"><g transform="translate(129.29144, 233.855874)"><g><path d="M 3.167969 0 L 7.105469 0 L 7.105469 -12.414062 L 10.742188 -12.414062 L 10.742188 -15.601562 L 7.105469 -15.601562 L 7.105469 -17.300781 C 7.105469 -18.519531 7.777344 -19.003906 8.542969 -19.003906 C 8.949219 -19.003906 9.398438 -18.832031 9.757812 -18.613281 L 11.007812 -21.753906 C 10.164062 -22.125 9.214844 -22.390625 8.183594 -22.390625 C 5.558594 -22.390625 3.199219 -20.722656 3.199219 -17.691406 L 3.199219 -15.601562 L 0.3125 -15.601562 L 0.3125 -12.414062 L 3.167969 -12.414062 Z M 3.167969 0 "/></g></g></g><g fill="#12229d" fill-opacity="1"><g transform="translate(140.030941, 233.855874)"><g><path d="M 8.792969 0.3125 C 13.617188 0.3125 16.785156 -3.417969 16.785156 -7.839844 C 16.785156 -12.242188 13.617188 -15.925781 8.792969 -15.925781 C 3.964844 -15.925781 0.796875 -12.242188 0.796875 -7.839844 C 0.796875 -3.417969 3.964844 0.3125 8.792969 0.3125 Z M 8.792969 -2.96875 C 5.917969 -2.96875 4.761719 -5.277344 4.761719 -7.839844 C 4.761719 -10.398438 5.917969 -12.632812 8.792969 -12.632812 C 11.679688 -12.632812 12.820312 -10.398438 12.820312 -7.839844 C 12.820312 -5.277344 11.679688 -2.96875 8.792969 -2.96875 Z M 8.792969 -2.96875 "/></g></g></g><g fill="#12229d" fill-opacity="1"><g transform="translate(157.638728, 233.855874)"><g><path d="M 2.265625 0 L 5.949219 0 L 5.949219 -6.589844 C 5.949219 -10.554688 7.808594 -12.210938 9.585938 -12.210938 C 10.195312 -12.210938 10.773438 -12.023438 11.289062 -11.679688 L 13.023438 -14.804688 C 12.273438 -15.570312 11.195312 -15.925781 10.164062 -15.925781 C 8.417969 -15.925781 6.652344 -14.867188 5.980469 -12.976562 L 5.980469 -15.601562 L 2.265625 -15.601562 Z M 2.265625 0 "/></g></g></g><g fill="#12229d" fill-opacity="1"><g transform="translate(170.360666, 233.855874)"><g><path d="M 2.265625 0 L 6.105469 0 L 6.105469 -8.574219 C 6.105469 -10.648438 7.324219 -12.382812 9.398438 -12.382812 C 11.351562 -12.382812 11.867188 -10.835938 11.867188 -8.949219 L 11.867188 0 L 15.738281 0 L 15.738281 -8.574219 C 15.738281 -10.648438 16.941406 -12.382812 19.003906 -12.382812 C 20.972656 -12.382812 21.519531 -10.804688 21.519531 -8.886719 L 21.519531 0 L 25.390625 0 L 25.390625 -9.367188 C 25.390625 -12.664062 23.625 -15.925781 19.628906 -15.925781 C 17.613281 -15.925781 15.675781 -15.101562 14.460938 -13.179688 C 13.429688 -15.039062 11.960938 -15.925781 10.070312 -15.925781 C 8.605469 -15.925781 7.136719 -15.382812 6.105469 -13.976562 L 6.105469 -15.601562 L 2.265625 -15.601562 Z M 2.265625 0 "/></g></g></g><g fill="#12229d" fill-opacity="1"><g transform="translate(197.568443, 233.855874)"><g><path d="M 6.527344 0.3125 C 8.386719 0.3125 10.039062 -0.28125 11.382812 -2.234375 L 11.632812 0 L 14.773438 0 L 14.773438 -9.460938 C 14.773438 -13.273438 12.273438 -15.925781 8.027344 -15.925781 C 4.949219 -15.925781 2.96875 -14.554688 1.46875 -12.507812 L 4.386719 -10.398438 C 5.058594 -11.539062 6.261719 -12.601562 8.058594 -12.601562 C 10.070312 -12.601562 11.132812 -11.289062 11.132812 -9.308594 L 7.074219 -9.308594 C 3.574219 -9.308594 0.859375 -8.183594 0.859375 -4.792969 C 0.859375 -1.53125 3.324219 0.3125 6.527344 0.3125 Z M 7.074219 -2.90625 C 5.589844 -2.90625 4.761719 -3.636719 4.761719 -4.667969 C 4.761719 -5.652344 5.558594 -6.558594 7.292969 -6.558594 L 11.132812 -6.558594 C 11.070312 -4.605469 9.246094 -2.90625 7.074219 -2.90625 Z M 7.074219 -2.90625 "/></g></g></g><g fill="#12229d" fill-opacity="1"><g transform="translate(214.130378, 233.855874)"><g><path d="M 7.808594 0.3125 C 8.886719 0.3125 10.039062 0.0625 10.617188 -0.15625 L 10.617188 -3.605469 C 10.101562 -3.355469 9.246094 -3.046875 8.449219 -3.046875 C 7.449219 -3.046875 6.683594 -3.480469 6.683594 -4.980469 L 6.683594 -12.414062 L 10.617188 -12.414062 L 10.617188 -15.601562 L 6.683594 -15.601562 L 6.683594 -22.1875 L 2.96875 -19.472656 L 2.96875 -15.601562 L 0.390625 -15.601562 L 0.390625 -12.414062 L 2.90625 -12.414062 L 2.90625 -4.308594 C 2.90625 -1.46875 4.730469 0.3125 7.808594 0.3125 Z M 7.808594 0.3125 "/></g></g></g><g fill="#12229d" fill-opacity="1"><g transform="translate(225.900122, 233.855874)"><g><path d="M 2.265625 0 L 5.949219 0 L 5.949219 -6.589844 C 5.949219 -10.554688 7.808594 -12.210938 9.585938 -12.210938 C 10.195312 -12.210938 10.773438 -12.023438 11.289062 -11.679688 L 13.023438 -14.804688 C 12.273438 -15.570312 11.195312 -15.925781 10.164062 -15.925781 C 8.417969 -15.925781 6.652344 -14.867188 5.980469 -12.976562 L 5.980469 -15.601562 L 2.265625 -15.601562 Z M 2.265625 0 "/></g></g></g><g fill="#12229d" fill-opacity="1"><g transform="translate(238.62206, 233.855874)"><g><path d="M 6.527344 0.3125 C 8.386719 0.3125 10.039062 -0.28125 11.382812 -2.234375 L 11.632812 0 L 14.773438 0 L 14.773438 -9.460938 C 14.773438 -13.273438 12.273438 -15.925781 8.027344 -15.925781 C 4.949219 -15.925781 2.96875 -14.554688 1.46875 -12.507812 L 4.386719 -10.398438 C 5.058594 -11.539062 6.261719 -12.601562 8.058594 -12.601562 C 10.070312 -12.601562 11.132812 -11.289062 11.132812 -9.308594 L 7.074219 -9.308594 C 3.574219 -9.308594 0.859375 -8.183594 0.859375 -4.792969 C 0.859375 -1.53125 3.324219 0.3125 6.527344 0.3125 Z M 7.074219 -2.90625 C 5.589844 -2.90625 4.761719 -3.636719 4.761719 -4.667969 C 4.761719 -5.652344 5.558594 -6.558594 7.292969 -6.558594 L 11.132812 -6.558594 C 11.070312 -4.605469 9.246094 -2.90625 7.074219 -2.90625 Z M 7.074219 -2.90625 "/></g></g></g><g fill="#12229d" fill-opacity="1"><g transform="translate(255.183995, 233.855874)"><g><path d="M 12.117188 -22.0625 L 12.117188 -14.039062 C 11.039062 -15.382812 9.308594 -15.925781 7.683594 -15.925781 C 3.355469 -15.925781 0.984375 -12.117188 0.984375 -7.808594 C 0.984375 -3.449219 3.355469 0.3125 7.746094 0.3125 C 9.476562 0.3125 11.195312 -0.28125 12.273438 -1.75 L 12.445312 0 L 15.988281 0 L 15.988281 -22.0625 Z M 8.667969 -3.136719 C 6.042969 -3.136719 4.855469 -5.183594 4.855469 -7.808594 C 4.855469 -10.398438 6.042969 -12.476562 8.667969 -12.476562 C 11.289062 -12.476562 12.445312 -10.429688 12.445312 -7.808594 C 12.445312 -5.152344 11.289062 -3.136719 8.667969 -3.136719 Z M 8.667969 -3.136719 "/></g></g></g><g fill="#12229d" fill-opacity="1"><g transform="translate(147.676724, 248.304154)"><g><path d="M 0.0859375 0 L 2.117188 0 L 2.921875 -2.25 L 6.941406 -2.25 L 7.742188 0 L 9.75 0 L 5.625 -10.347656 L 4.234375 -10.347656 Z M 3.550781 -3.835938 L 4.9375 -7.617188 L 6.3125 -3.835938 Z M 3.550781 -3.835938 "/></g></g></g><g fill="#12229d" fill-opacity="1"><g transform="translate(158.713156, 248.304154)"><g><path d="M 5.609375 0.144531 C 7.667969 0.144531 9.316406 -0.902344 10.136719 -2.835938 L 8.414062 -3.539062 C 7.859375 -2.144531 6.941406 -1.617188 5.609375 -1.617188 C 3.390625 -1.617188 2.445312 -3.191406 2.445312 -5.25 C 2.445312 -7.171875 3.390625 -8.746094 5.582031 -8.746094 C 6.929688 -8.746094 7.996094 -8.21875 8.386719 -6.855469 L 10.121094 -7.542969 C 9.285156 -9.476562 7.644531 -10.515625 5.59375 -10.515625 C 2.191406 -10.515625 0.601562 -8.011719 0.601562 -5.179688 C 0.601562 -2.335938 2.203125 0.144531 5.609375 0.144531 Z M 5.609375 0.144531 "/></g></g></g><g fill="#12229d" fill-opacity="1"><g transform="translate(170.401442, 248.304154)"><g><path d="M 0.0859375 0 L 2.117188 0 L 2.921875 -2.25 L 6.941406 -2.25 L 7.742188 0 L 9.75 0 L 5.625 -10.347656 L 4.234375 -10.347656 Z M 3.550781 -3.835938 L 4.9375 -7.617188 L 6.3125 -3.835938 Z M 3.550781 -3.835938 "/></g></g></g><g fill="#12229d" fill-opacity="1"><g transform="translate(181.437875, 248.304154)"><g><path d="M 1.332031 0 L 4.320312 0 C 7.800781 0 9.71875 -1.875 9.71875 -5.097656 C 9.71875 -8.460938 7.859375 -10.347656 4.335938 -10.347656 L 1.332031 -10.347656 Z M 3.191406 -1.707031 L 3.191406 -8.640625 L 4.304688 -8.640625 C 6.855469 -8.640625 7.859375 -7.632812 7.859375 -5.179688 C 7.859375 -2.59375 6.421875 -1.707031 4.136719 -1.707031 Z M 3.191406 -1.707031 "/></g></g></g><g fill="#12229d" fill-opacity="1"><g transform="translate(192.957703, 248.304154)"><g><path d="M 1.332031 0 L 8.21875 0 L 8.21875 -1.757812 L 3.191406 -1.757812 L 3.191406 -4.320312 L 7.875 -4.320312 L 7.875 -6.027344 L 3.191406 -6.027344 L 3.191406 -8.640625 L 8.21875 -8.640625 L 8.21875 -10.347656 L 1.332031 -10.347656 Z M 1.332031 0 "/></g></g></g><g fill="#12229d" fill-opacity="1"><g transform="translate(203.276359, 248.304154)"><g><path d="M 1.332031 0 L 3.121094 0 L 3.121094 -7.742188 L 5.683594 -0.902344 L 7.484375 -0.902344 L 10.046875 -7.742188 L 10.046875 0 L 11.835938 0 L 11.835938 -10.347656 L 9.332031 -10.347656 L 6.585938 -2.988281 L 3.835938 -10.347656 L 1.332031 -10.347656 Z M 1.332031 0 "/></g></g></g><g fill="#12229d" fill-opacity="1"><g transform="translate(217.645308, 248.304154)"><g><path d="M 3.867188 0 L 5.808594 0 L 5.808594 -4.035156 L 9.675781 -10.347656 L 7.410156 -10.347656 L 4.8125 -5.824219 L 2.234375 -10.347656 L -0.015625 -10.347656 L 3.867188 -4.035156 Z M 3.867188 0 "/></g></g></g></svg>